<svg xmlns="http://www.w3.org/2000/svg" viewBox="0 0 512 512">
  <rect width="512" height="512" rx="80" fill="#161310"/>
  <rect x="8" y="8" width="496" height="496" rx="74" fill="none" stroke="#C9A24B" stroke-width="3"/>
  <g transform="translate(256,220)">
    <path d="M-80,0 L-70,120 Q-68,140 0,140 Q68,140 70,120 L80,0 Z" fill="#C9A24B"/>
    <rect x="-85" y="-12" width="170" height="24" rx="12" fill="#C9A24B"/>
    <path d="M80,20 Q120,20 120,60 Q120,100 80,100" fill="none" stroke="#C9A24B" stroke-width="16" stroke-linecap="round"/>
    <path d="M-30,-40 Q-20,-70 -30,-100" fill="none" stroke="#C9A24B" stroke-width="8" stroke-linecap="round" opacity="0.6"/>
    <path d="M0,-40 Q10,-70 0,-100" fill="none" stroke="#C9A24B" stroke-width="8" stroke-linecap="round" opacity="0.6"/>
    <path d="M30,-40 Q40,-70 30,-100" fill="none" stroke="#C9A24B" stroke-width="8" stroke-linecap="round" opacity="0.6"/>
  </g>
  <text x="256" y="415" text-anchor="middle" font-family="Georgia, serif" font-size="36" font-weight="bold" fill="#C9A24B" letter-spacing="1">FRESH</text>
  <text x="256" y="450" text-anchor="middle" font-family="Georgia, serif" font-size="20" fill="#857C6C" letter-spacing="3">CAFE &amp; MARKET</text>
</svg>